<svg xmlns="http://www.w3.org/2000/svg" viewBox="0 0 200 200">
  <rect width="200" height="200" fill="#FAF8FA" rx="12"/>
  <g transform="translate(35,30)" stroke="#C3B9D9" stroke-width="2.5" fill="none" stroke-linecap="round" stroke-linejoin="round">
    <path d="M35,110 L35,65 Q35,55 65,55 Q95,55 95,65 L95,110"/>
    <path d="M35,110 Q65,120 95,110"/>
    <path d="M30,65 Q65,50 100,65"/>
    <path d="M30,65 L30,55 Q65,40 100,55 L100,65"/>
    <path d="M40,75 Q65,70 90,75"/>
    <path d="M38,90 Q65,85 92,90"/>
    <path d="M55,55 L55,30"/>
    <path d="M75,55 L75,28"/>
    <circle cx="55" cy="30" r="4" fill="#DEB7C1" stroke="none"/>
    <circle cx="75" cy="28" r="3" fill="#DEB7C1" stroke="none"/>
    <ellipse cx="65" cy="108" rx="35" ry="8"/>
  </g>
  <text x="100" y="185" text-anchor="middle" fill="#888" font-size="11" font-family="sans-serif">Matcha Layer Cake</text>
</svg>
