<svg xmlns="http://www.w3.org/2000/svg" viewBox="0 0 200 200">
  <rect width="200" height="200" fill="#FAF8FA" rx="12"/>
  <g transform="translate(35,30)" stroke="#DEB7C1" stroke-width="2.5" fill="none" stroke-linecap="round" stroke-linejoin="round">
    <path d="M10,60 Q10,25 65,25 Q120,25 120,60 L110,110 Q110,125 65,125 Q20,125 20,110 Z"/>
    <path d="M10,60 Q10,50 65,50 Q120,50 120,60"/>
    <path d="M25,50 Q25,15 40,10"/>
    <path d="M90,50 Q90,15 80,8"/>
    <circle cx="50" cy="80" r="7" fill="#C3B9D9" stroke="none"/>
    <circle cx="70" cy="85" r="6" fill="#C3B9D9" stroke="none"/>
    <path d="M20,85 L35,80 L50,85 L65,80 L80,85 L95,80 L110,85"/>
    <path d="M35,95 Q45,85 50,95 Q55,85 60,95"/>
    <path d="M70,95 Q78,88 85,95"/>
  </g>
  <text x="100" y="185" text-anchor="middle" fill="#888" font-size="11" font-family="sans-serif">Tom Yum Goong</text>
</svg>
